<?xml version="1.0" ?><!DOCTYPE svg  PUBLIC '-//W3C//DTD SVG 1.1//EN'  'http://www.w3.org/Graphics/SVG/1.1/DTD/svg11.dtd'><svg height="256px" style="shape-rendering:geometricPrecision; text-rendering:geometricPrecision; image-rendering:optimizeQuality; fill-rule:evenodd; clip-rule:evenodd" version="1.1" viewBox="0 0 256000 255998" width="256px" xml:space="preserve" xmlns="http://www.w3.org/2000/svg" xmlns:xlink="http://www.w3.org/1999/xlink"><defs><style type="text/css">
   <![CDATA[
    .fil2 {fill:none}
    .fil0 {fill:#00ACEC}
    .fil1 {fill:#FFFFFE}
   ]]>
  </style></defs><g id="Layer_x0020_1"><path class="fil0" d="M209021 46982c-20736,-20736 -49382,-33560 -81020,-33560 -3607,0 -7241,178 -10890,524 -3236,307 -6409,743 -9516,1301 -12761,-10679 -28620,-15749 -44315,-15207 -16021,555 -31868,6938 -44085,19155 -12217,12215 -18601,28063 -19155,44083 -542,15695 4530,31553 15210,44316 -558,3104 -995,6277 -1304,9512 -346,3648 -525,7282 -525,10890 0,31641 12825,60286 33561,81020 20735,20735 49381,33561 81019,33561 3610,0 7245,-178 10896,-526 3235,-307 6408,-744 9515,-1302 12759,10679 28615,15751 44311,15208 16019,-553 31867,-6937 44084,-19153 12216,-12216 18599,-28064 19153,-44086 542,-15694 -4528,-31553 -15207,-44313 559,-3106 996,-6278 1303,-9513 347,-3651 526,-7285 526,-10896 0,-31638 -12827,-60281 -33561,-81014z"/><path class="fil1" d="M183052 86960c0,-9175 -6972,-16687 -17566,-21961 -11022,-5485 -26131,-8619 -41126,-8619 -26607,0 -57687,11776 -57687,43635 0,13189 4494,22187 11884,28623 7189,6262 17042,9935 28091,12665l11 0 21563 5264 -1 6 1922 475c10629,2636 17096,4240 17096,10941 0,2854 -1690,5424 -4702,7302 -3278,2043 -8032,3275 -13905,3275 -14238,0 -20947,-6822 -26757,-12730 -5152,-5238 -9695,-9857 -17674,-9857 -5596,0 -9788,1904 -12700,4915 -3295,3408 -4828,8164 -4828,13121 0,10096 7428,19137 19319,25573 11424,6184 27094,10027 44141,10027 15475,0 31382,-4223 42786,-13041 9900,-7655 16411,-18693 16411,-33348 0,-13867 -6710,-23167 -16232,-29639 -9179,-6237 -20902,-9726 -31565,-12165l-15306 -3515 -21 0c-5437,-1210 -10143,-2295 -13325,-4013 -2582,-1396 -4117,-3318 -4117,-6390 0,-2659 1422,-4638 3951,-5993 3264,-1749 8232,-2577 14407,-2577 11878,0 17311,4891 22096,9200 4467,4021 8459,7615 15801,7615l1 -10c5603,0 10122,-2237 13251,-5738 3089,-3458 4781,-8121 4781,-13041z"/></g><rect class="fil2" height="255998" width="255998" x="1"/></svg>